<?xml version="1.0" standalone="no"?>
<!DOCTYPE svg PUBLIC "-//W3C//DTD SVG 20010904//EN"
 "http://www.w3.org/TR/2001/REC-SVG-20010904/DTD/svg10.dtd">
<svg version="1.0" xmlns="http://www.w3.org/2000/svg"
 width="64.000000pt" height="64.000000pt" viewBox="0 0 64.000000 64.000000"
 preserveAspectRatio="xMidYMid meet">

<g transform="translate(0.000000,64.000000) scale(0.100000,-0.100000)"
fill="#000000" stroke="none">
<path d="M258 633 c-9 -2 -21 -18 -27 -35 -8 -23 -15 -29 -28 -23 -41 17 -53
16 -78 -3 l-26 -20 53 -29 c46 -24 53 -33 56 -61 3 -32 2 -33 -30 -30 -28 3
-37 10 -61 56 l-29 53 -20 -26 c-19 -25 -20 -37 -3 -78 6 -13 0 -20 -23 -28
-22 -8 -33 -19 -37 -40 -4 -17 -5 -33 -2 -36 3 -3 35 5 70 16 76 26 155 21
183 -10 16 -18 16 -20 0 -38 -28 -31 -107 -36 -183 -10 -35 11 -67 19 -70 16
-3 -3 -2 -19 2 -36 4 -21 15 -32 37 -40 23 -8 29 -15 23 -28 -17 -41 -16 -53
3 -78 l20 -26 29 53 c24 46 33 53 61 56 32 3 33 2 30 -30 -3 -28 -10 -37 -56
-61 l-53 -29 26 -20 c25 -19 37 -20 78 -3 13 6 20 0 28 -23 8 -22 19 -33 40
-37 17 -4 33 -5 36 -2 3 3 -5 35 -16 70 -26 76 -21 155 10 183 19 17 19 13 19
-121 l0 -138 43 7 c62 10 137 48 181 92 123 123 123 325 0 448 -44 44 -119 82
-181 92 l-43 7 0 -138 c0 -135 0 -138 -19 -121 -30 28 -36 110 -11 180 11 33
20 63 20 68 0 8 -22 9 -52 1z m198 -105 c27 -19 62 -54 79 -82 27 -44 30 -58
30 -126 0 -68 -3 -82 -30 -126 -27 -43 -111 -114 -136 -114 -5 0 -9 107 -9
240 0 133 4 240 9 240 5 0 30 -15 57 -32z"/>
</g>
</svg>
